<svg id="eyeLigYnQau1" xmlns="http://www.w3.org/2000/svg" xmlns:xlink="http://www.w3.org/1999/xlink" viewBox="0 0 538 345" shape-rendering="geometricPrecision" text-rendering="geometricPrecision"><path id="eyeLigYnQau2" d="M0.5,187.068h142.145c0,0-9.267-15.248-34.711-9.746c0,0-4.869-20.908-29.843-20.908-21.6752,0-27.8008,20.908-27.8008,20.908s-15.8638-11.476-28.5862,5.187c0,0-18.06267-5.502-21.204,4.559Z" transform="translate(-150.493648 0)" fill="#e6f0ff"/><path id="eyeLigYnQau3" d="M379.188,56.7487h142.145c0,0-9.267-15.2484-34.712-9.7464c0,0-4.869-20.9076-29.842-20.9076-21.676,0-27.801,20.9076-27.801,20.9076s-15.864-11.4756-28.586,5.1876c-.157-.1572-18.063-5.502-21.204,4.5588Z" transform="translate(173.920284 63.4313)" fill="#e6f0ff"/><path id="eyeLigYnQau4" d="M152.384,78.757c-.943-4.5588-2.985-8.8033-5.498-12.4189l4.712-6.7596-2.827-2.8295-1.257-1.2577-2.827-2.8296-7.068,4.8733c-3.769-2.358-8.01-4.0872-12.565-4.716l-1.414-8.1745h-4.083-1.728-4.084l-1.571,8.646c-4.554.9432-8.638,2.8296-12.2507,5.502l-6.7539-4.716-2.8272,2.8296-1.2565,1.2576-2.8272,2.8296l4.869,7.074c-2.356,3.7728-4.0837,8.0172-4.712,12.7332L78.248,82.2153v4.0872v1.7292v4.0872l8.4817,1.5721c.9424,4.5588,2.9842,8.803,5.6543,12.419l-4.712,6.759l2.8273,2.83l1.2565,1.258l2.8272,2.829l7.068-4.873c3.77,2.358,8.01,4.087,12.565,4.716l1.414,8.174h4.084h1.727h4.084l1.571-8.646c4.555-.943,8.638-2.829,12.251-5.502l6.754,4.716l2.827-2.829l1.257-1.258l2.827-2.829-4.869-7.074c2.356-3.773,4.083-8.0177,4.712-12.5765l8.167-1.4148v-4.0872-1.7292-4.0872l-8.638-1.7291Zm-32.827,27.196c-10.838,0-19.6337-8.8037-19.6337-19.6505s8.7957-19.65,19.6337-19.65c10.837,0,19.633,8.8032,19.633,19.65s-8.796,19.6505-19.633,19.6505Z" fill="#e6f0ff"/><path id="eyeLigYnQau5" d="M510.495,167.889c-.785-3.458-2.198-6.602-4.24-9.275l3.455-5.03-2.199-2.201-.942-.943-2.199-2.201-5.34,3.773c-2.828-1.886-5.969-2.987-9.424-3.616l-1.1-6.13h-2.984-1.1-2.984l-1.099,6.445c-3.456.786-6.44,2.201-9.267,4.087l-5.026-3.458-2.199,2.2-.943.944-2.199,2.2l3.77,5.345c-1.885,2.83-2.984,5.974-3.613,9.432l-6.125,1.101v2.986v1.258v2.987l6.44,1.1c.785,3.459,2.198,6.603,4.24,9.275l-3.455,5.03l2.199,2.201.942.943l2.199,2.201l5.34-3.773c2.828,1.887,5.969,2.987,9.424,3.616l1.1,6.131h2.984h1.257h2.984l1.099-6.445c3.456-.786,6.44-2.201,9.267-4.088l5.026,3.459l2.199-2.201.943-.943l2.199-2.201-3.77-5.345c1.885-2.829,2.984-5.973,3.613-9.432l6.125-1.1v-2.987-1.258-2.986l-6.597-1.101Zm-24.659,20.279c-8.167,0-14.764-6.602-14.764-14.777c0-8.174,6.597-14.777,14.764-14.777s14.764,6.603,14.764,14.777c0,8.175-6.597,14.777-14.764,14.777Z" fill="#e6f0ff"/><path id="eyeLigYnQau6" d="M188.037,46.5312c-.471-2.358-1.57-4.5588-2.984-6.4452l2.513-3.6156-1.57-1.572-.629-.6288-1.57-1.572-3.77,2.6724c-2.042-1.2576-4.241-2.2009-6.597-2.5153l-.785-4.2443h-2.199-.942-2.199l-.786,4.5588c-2.356.4716-4.555,1.572-6.439,2.9868l-3.613-2.5153-1.571,1.572-.628.6289-1.571,1.572l2.671,3.7728c-1.257,2.0436-2.199,4.2443-2.513,6.6023l-4.241.786v2.2009.9431v2.2009l4.555.786c.471,2.358,1.57,4.5587,2.984,6.4451l-2.513,3.6156l1.571,1.572.628.6289l1.57,1.572l3.77-2.6725c2.042,1.2576,4.241,2.2009,6.597,2.5153l.785,4.2444h2.199.943h2.198l.786-4.5588c2.356-.4716,4.555-1.5721,6.44-2.9869l3.612,2.5153l1.571-1.572.628-.6288l1.571-1.572-2.67-3.7728c1.256-2.0436,2.198-4.2444,2.513-6.6024l4.24-.786v-2.358-.9433-2.2007l-4.555-.6288ZM170.603,60.8363c-5.654,0-10.366-4.5587-10.366-10.3751c0-5.6592,4.555-10.3752,10.366-10.3752c5.812,0,10.366,4.5588,10.366,10.3752c0,5.6592-4.554,10.3751-10.366,10.3751Z" fill="#e6f0ff"/><path d="M318.089,285.476h-41.309v37.885h41.309v-37.885Z" fill="#b3d2ff"/><path d="M331.597,321.631h-67.853c-1.885,0-3.456,1.572-3.456,3.458c0,1.887,1.571,3.459,3.456,3.459h67.853c1.884,0,3.455-1.572,3.455-3.459c0-1.886-1.571-3.458-3.455-3.458Z" fill="#c4dcff"/><path d="M465.26,309.212h-335.494c-3.455,0-6.126-2.829-6.126-6.13v-210.6485c0-3.4584,2.828-6.1308,6.126-6.1308h335.494c3.456,0,6.126,2.8296,6.126,6.1308v210.6485c0,3.458-2.67,6.13-6.126,6.13Z" fill="#c4dcff"/><path d="M132.593,302.767c-.785,0-1.413-.629-1.413-1.415v-207.0319c0-.786.628-1.4148,1.413-1.4148h329.84c.786,0,1.414.6288,1.414,1.4148v207.0319c0,.786-.628,1.415-1.414,1.415h-329.84Z" fill="#e6f0ff"/><path id="eyeLigYnQau11" d="M229.346,122.459h-71.936v71.998h71.936v-71.998Z" fill="#fff"/><path id="eyeLigYnQau12" d="M432.119,122.616h-190.679v71.998h190.679v-71.998Z" opacity="0.3" fill="#fff"/><g id="eyeLigYnQau13" transform="translate(.000001 0.000001)"><path d="M432.119,202.159h-190.679v10.061h190.679v-10.061Z" fill="#fff"/><path d="M431.962,219.294h-190.679v10.061h190.679v-10.061Z" fill="#fff"/></g><g id="eyeLigYnQau16" transform="translate(.000001 0.000001)" opacity="0.3"><path d="M229.346,202.002h-71.936v10.061h71.936v-10.061Z" fill="#fff"/><path d="M229.346,219.294h-71.936v10.061h71.936v-10.061Z" fill="#fff"/></g><g transform="translate(.000001 0)"><path d="M471.229,247.59h-347.589v25.309h347.589v-25.309Z" transform="translate(.2355 0)" fill="#ffc928"/><path d="M150.028,247.59l-15.864,25.309h-10.524v-.314l15.55-24.995h10.838Z" fill="#374774"/><path d="M174.059,247.59l-15.707,25.309h-10.838l15.864-25.309h10.681Z" fill="#374774"/><path d="M198.247,247.59l-15.864,25.309h-10.68L187.41,247.59h10.837Z" fill="#374774"/><path d="M222.278,247.59l-15.707,25.309h-10.837l15.864-25.309h10.68Z" fill="#374774"/><path d="M246.467,247.59l-15.864,25.309h-10.681l15.707-25.309h10.838Z" fill="#374774"/><path d="M270.655,247.59l-15.864,25.309h-10.838l15.864-25.309h10.838Z" fill="#374774"/><path d="M294.686,247.59l-15.707,25.309h-10.837l15.706-25.309h10.838Z" fill="#374774"/><path d="M318.874,247.59l-15.863,25.309h-10.681l15.707-25.309h10.837Z" fill="#374774"/><path d="M342.905,247.59l-15.706,25.309h-10.838l15.864-25.309h10.68Z" fill="#374774"/><path d="M367.094,247.59L351.23,272.899h-10.681l15.707-25.309h10.838Z" fill="#374774"/><path d="M391.125,247.59l-15.707,25.309h-10.837l15.863-25.309h10.681Z" fill="#374774"/><path d="M415.313,247.59l-15.864,25.309h-10.68l15.707-25.309h10.837Z" fill="#374774"/><path d="M439.344,247.59l-15.706,25.309h-10.838l15.864-25.309h10.68Z" fill="#374774"/><path d="M463.533,247.59l-15.707,25.309h-10.838l15.707-25.309h10.838Z" fill="#374774"/><path d="M471.229,256.707v16.192h-10.209l10.209-16.192Z" fill="#374774"/></g><path d="M278.194,104.853h-35.497v8.803h35.497v-8.803Z" fill="#e6f0ff"/><g id="eyeLigYnQau37" transform="translate(.000001 0.000001)"><path d="M327.444,149.045L198.179,170.258l6.557,40.022L334,189.067l-6.556-40.022Z" fill="#839fc7"/><path d="M200.446,169.933c-1.728.786,60.156-24.523,60.156-24.523l66.911,3.616" fill="none" stroke="#c4dcff" stroke-miterlimit="10"/></g><path d="M537.825,328.391h-501.9849v15.72h501.9849v-15.72Z" fill="#839fc7"/><g id="eyeLigYnQau41"><path d="M39.9238,206.718c-1.7277-.471-25.1307,102.809,63.9262,116.171c0,0,26.073-89.761-63.9262-116.171Z" fill="#ffc928"/><path d="M59.0859,240.831l43.5071,80.801" fill="none" stroke="#fff" stroke-width="2" stroke-linecap="round" stroke-miterlimit="10"/><path d="M56.887,265.982l20.5757,8.961" fill="none" stroke="#fff" stroke-width="2" stroke-linecap="round" stroke-miterlimit="10"/><path d="M94.2689,268.97l-5.6544,26.881" fill="none" stroke="#fff" stroke-width="2" stroke-linecap="round" stroke-miterlimit="10"/></g><path d="M432.119,14.6191h-37.853v71.6832h37.853v-71.6832Z" fill="#839fc7"/><path d="M438.402,0h-66.282v66.3384h66.282v-66.3384Z" fill="#839fc7"/><g id="eyeLigYnQau48"><path d="M260.288,130.318c6.246,0,11.309-5.067,11.309-11.318s-5.063-11.318-11.309-11.318c-6.245,0-11.309,5.067-11.309,11.318s5.064,11.318,11.309,11.318Z" fill="#839fc7"/><path d="M260.602,134.72c-.628,0-1.099-.472-1.099-1.1v-12.891c0-.628.471-1.1,1.099-1.1.629,0,1.1.472,1.1,1.1v12.891c0,.628-.471,1.1-1.1,1.1Z" fill="#839fc7"/><path d="M279.765,112.712h-38.482v9.904h38.482v-9.904Z" fill="#839fc7"/><path d="M260.288,149.026c-1.57,0-3.298-.472-4.712-1.415-1.885-1.258-3.141-3.144-3.455-5.345-.471-2.201.157-4.402,1.413-6.288c1.571-2.358,4.241-3.616,7.068-3.616.629,0,1.1.472,1.1,1.101c0,.628-.628,1.1-1.1,1.1-2.041,0-3.926.943-5.026,2.673-.942,1.257-1.256,2.986-.942,4.558s1.256,2.987,2.513,3.93c2.67,1.887,6.597,1.258,8.482-1.572.628-.943,1.099-2.2,1.099-3.301c0-.629.471-1.1,1.099-1.1.629,0,1.1.471,1.1,1.1c0,1.729-.471,3.301-1.571,4.716-1.727,2.201-4.398,3.459-7.068,3.459Z" fill="#839fc7"/></g><g id="eyeLigYnQau53" transform="translate(.000001 0)"><path d="M243.639,21.2217h-2.356v92.2763h2.356v-92.2763Z" fill="#839fc7"/><path d="M261.231,21.2217h-2.356v92.2763h2.356v-92.2763Z" fill="#839fc7"/><path d="M279.764,21.2217h-2.356v92.2763h2.356v-92.2763Z" fill="#839fc7"/></g><path d="M432.433,0h-201.202v34.1124h201.202v-34.1124Z" fill="#839fc7"/><path d="M262.487,5.81641L249.608,28.1388L236.571,5.81641h25.916Z" fill="#fff"/><path d="M282.121,28.1388L269.241,5.81641L256.362,28.1388h25.759Z" fill="#fff"/><path d="M242.54,28.1393h-11.309v-19.65004L242.54,28.1393Z" fill="#fff"/><path d="M303.167,5.81641L290.288,28.1388L277.408,5.81641h25.759Z" fill="#fff"/><path d="M322.801,28.1388L309.921,5.81641L297.042,28.1388h25.759Z" fill="#fff"/><path d="M343.848,5.81641L330.968,28.1388L318.089,5.81641h25.759Z" fill="#fff"/><path d="M363.638,28.1388L350.759,5.81641L337.879,28.1388h25.759Z" fill="#fff"/><path d="M384.685,5.81641L371.806,28.1388L358.926,5.81641h25.759Z" fill="#fff"/><path d="M404.318,28.1388L391.439,5.81641L378.559,28.1388h25.759Z" fill="#fff"/><path d="M425.365,5.81641L412.486,28.1388L399.606,5.81641h25.759Z" fill="#fff"/><path d="M432.276,5.97362v22.16518h-12.879L432.276,5.81641v.15721Z" fill="#fff"/><path d="M231.231,0h-6.283v34.1124h6.283v-34.1124Z" fill="#839fc7"/><path d="M438.402,0h-6.283v34.1124h6.283v-34.1124Z" fill="#839fc7"/><g id="eyeLigYnQau71" transform="translate(0 0.000001)"><path d="M529.815,239.73c1.256-.315,17.905,73.255-45.55,82.844c0,0-18.691-63.823,45.55-82.844Z" fill="#ffc928"/><path d="M483.794,325.09l34.555-64.924" fill="none" stroke="#fff" stroke-width="2" stroke-linecap="round" stroke-miterlimit="10"/><path d="M501.072,269.912l1.727,19.493" fill="none" stroke="#fff" stroke-width="2" stroke-linecap="round" stroke-miterlimit="10"/><path d="M496.045,302.138c-.157.314,16.021-6.76,16.021-6.76" fill="none" stroke="#fff" stroke-width="2" stroke-linecap="round" stroke-miterlimit="10"/></g><path d="M496.045,302.138c-.157.314,16.021-6.76,16.021-6.76l-16.021,6.76Z" fill="#fff"/><g><path d="M399.606,122.459h-5.34v211.591h5.34v-211.591Z" fill="#839fc7"/><path d="M432.276,122.459h-5.34v211.591h5.34v-211.591Z" fill="#839fc7"/><path d="M428.664,147.769h-31.728v2.672h31.728v-2.672Z" fill="#839fc7"/><path d="M428.664,174.964h-31.728v2.672h31.728v-2.672Z" fill="#839fc7"/><path d="M428.664,202.159h-31.728v2.673h31.728v-2.673Z" fill="#839fc7"/><path d="M428.664,229.355h-31.728v2.673h31.728v-2.673Z" fill="#839fc7"/><path d="M428.664,256.551h-31.728v2.672h31.728v-2.672Z" fill="#839fc7"/><path d="M428.664,283.903h-31.728v2.673h31.728v-2.673Z" fill="#839fc7"/></g>
<script><![CDATA[
!function(t,n){"object"==typeof exports&&"undefined"!=typeof module?module.exports=n():"function"==typeof __SVGATOR_DEFINE__&&__SVGATOR_DEFINE__.amd?__SVGATOR_DEFINE__(n):((t="undefined"!=typeof globalThis?globalThis:t||self).__SVGATOR_PLAYER__=t.__SVGATOR_PLAYER__||{},t.__SVGATOR_PLAYER__["5c7f360c"]=n())}(this,(function(){"use strict";function t(t,n){var e=Object.keys(t);if(Object.getOwnPropertySymbols){var r=Object.getOwnPropertySymbols(t);n&&(r=r.filter((function(n){return Object.getOwnPropertyDescriptor(t,n).enumerable}))),e.push.apply(e,r)}return e}function n(n){for(var e=1;e<arguments.length;e++){var r=null!=arguments[e]?arguments[e]:{};e%2?t(Object(r),!0).forEach((function(t){u(n,t,r[t])})):Object.getOwnPropertyDescriptors?Object.defineProperties(n,Object.getOwnPropertyDescriptors(r)):t(Object(r)).forEach((function(t){Object.defineProperty(n,t,Object.getOwnPropertyDescriptor(r,t))}))}return n}function e(t){return(e="function"==typeof Symbol&&"symbol"==typeof Symbol.iterator?function(t){return typeof t}:function(t){return t&&"function"==typeof Symbol&&t.constructor===Symbol&&t!==Symbol.prototype?"symbol":typeof t})(t)}function r(t,n){if(!(t instanceof n))throw new TypeError("Cannot call a class as a function")}function i(t,n){for(var e=0;e<n.length;e++){var r=n[e];r.enumerable=r.enumerable||!1,r.configurable=!0,"value"in r&&(r.writable=!0),Object.defineProperty(t,r.key,r)}}function o(t,n,e){return n&&i(t.prototype,n),e&&i(t,e),t}function u(t,n,e){return n in t?Object.defineProperty(t,n,{value:e,enumerable:!0,configurable:!0,writable:!0}):t[n]=e,t}function a(t){return(a=Object.setPrototypeOf?Object.getPrototypeOf:function(t){return t.__proto__||Object.getPrototypeOf(t)})(t)}function l(t,n){return(l=Object.setPrototypeOf||function(t,n){return t.__proto__=n,t})(t,n)}function s(){if("undefined"==typeof Reflect||!Reflect.construct)return!1;if(Reflect.construct.sham)return!1;if("function"==typeof Proxy)return!0;try{return Boolean.prototype.valueOf.call(Reflect.construct(Boolean,[],(function(){}))),!0}catch(t){return!1}}function f(t,n,e){return(f=s()?Reflect.construct:function(t,n,e){var r=[null];r.push.apply(r,n);var i=new(Function.bind.apply(t,r));return e&&l(i,e.prototype),i}).apply(null,arguments)}function c(t,n){if(n&&("object"==typeof n||"function"==typeof n))return n;if(void 0!==n)throw new TypeError("Derived constructors may only return object or undefined");return function(t){if(void 0===t)throw new ReferenceError("this hasn't been initialised - super() hasn't been called");return t}(t)}function h(t,n,e){return(h="undefined"!=typeof Reflect&&Reflect.get?Reflect.get:function(t,n,e){var r=function(t,n){for(;!Object.prototype.hasOwnProperty.call(t,n)&&null!==(t=a(t)););return t}(t,n);if(r){var i=Object.getOwnPropertyDescriptor(r,n);return i.get?i.get.call(e):i.value}})(t,n,e||t)}function v(t){return function(t){if(Array.isArray(t))return y(t)}(t)||function(t){if("undefined"!=typeof Symbol&&null!=t[Symbol.iterator]||null!=t["@@iterator"])return Array.from(t)}(t)||function(t,n){if(!t)return;if("string"==typeof t)return y(t,n);var e=Object.prototype.toString.call(t).slice(8,-1);"Object"===e&&t.constructor&&(e=t.constructor.name);if("Map"===e||"Set"===e)return Array.from(t);if("Arguments"===e||/^(?:Ui|I)nt(?:8|16|32)(?:Clamped)?Array$/.test(e))return y(t,n)}(t)||function(){throw new TypeError("Invalid attempt to spread non-iterable instance.\nIn order to be iterable, non-array objects must have a [Symbol.iterator]() method.")}()}function y(t,n){(null==n||n>t.length)&&(n=t.length);for(var e=0,r=new Array(n);e<n;e++)r[e]=t[e];return r}function g(t,n,e){if(Number.isInteger(t))return t;var r=Math.pow(10,n);return Math[e]((+t+Number.EPSILON)*r)/r}Number.isInteger||(Number.isInteger=function(t){return"number"==typeof t&&isFinite(t)&&Math.floor(t)===t}),Number.EPSILON||(Number.EPSILON=2220446049250313e-31);var d=p(Math.pow(10,-6));function p(t){var n=arguments.length>1&&void 0!==arguments[1]?arguments[1]:6;return g(t,n,"round")}function m(t,n){var e=arguments.length>2&&void 0!==arguments[2]?arguments[2]:d;return Math.abs(t-n)<e}p(Math.pow(10,-2)),p(Math.pow(10,-4));var b=Math.PI/180;function w(t){return t}function A(t,n,e){var r=1-e;return 3*e*r*(t*r+n*e)+e*e*e}function _(){var t=arguments.length>0&&void 0!==arguments[0]?arguments[0]:0,n=arguments.length>1&&void 0!==arguments[1]?arguments[1]:0,e=arguments.length>2&&void 0!==arguments[2]?arguments[2]:1,r=arguments.length>3&&void 0!==arguments[3]?arguments[3]:1;return t<0||t>1||e<0||e>1?null:m(t,n)&&m(e,r)?w:function(i){if(i<=0)return t>0?i*n/t:0===n&&e>0?i*r/e:0;if(i>=1)return e<1?1+(i-1)*(r-1)/(e-1):1===e&&t<1?1+(i-1)*(n-1)/(t-1):1;for(var o,u=0,a=1;u<a;){var l=A(t,e,o=(u+a)/2);if(m(i,l))break;l<i?u=o:a=o}return A(n,r,o)}}function x(){return 1}function k(t){return 1===t?1:0}function S(){var t=arguments.length>0&&void 0!==arguments[0]?arguments[0]:1,n=arguments.length>1&&void 0!==arguments[1]?arguments[1]:0;if(1===t){if(0===n)return k;if(1===n)return x}var e=1/t;return function(t){return t>=1?1:(t+=n*e)-t%e}}var O=Math.sin,j=Math.cos,M=Math.acos,E=Math.asin,P=Math.tan,I=Math.atan2,R=Math.PI/180,F=180/Math.PI,N=Math.sqrt,T=function(){function t(){var n=arguments.length>0&&void 0!==arguments[0]?arguments[0]:1,e=arguments.length>1&&void 0!==arguments[1]?arguments[1]:0,i=arguments.length>2&&void 0!==arguments[2]?arguments[2]:0,o=arguments.length>3&&void 0!==arguments[3]?arguments[3]:1,u=arguments.length>4&&void 0!==arguments[4]?arguments[4]:0,a=arguments.length>5&&void 0!==arguments[5]?arguments[5]:0;r(this,t),this.m=[n,e,i,o,u,a],this.i=null,this.w=null,this.s=null}return o(t,[{key:"determinant",get:function(){var t=this.m;return t[0]*t[3]-t[1]*t[2]}},{key:"isIdentity",get:function(){if(null===this.i){var t=this.m;this.i=1===t[0]&&0===t[1]&&0===t[2]&&1===t[3]&&0===t[4]&&0===t[5]}return this.i}},{key:"point",value:function(t,n){var e=this.m;return{x:e[0]*t+e[2]*n+e[4],y:e[1]*t+e[3]*n+e[5]}}},{key:"translateSelf",value:function(){var t=arguments.length>0&&void 0!==arguments[0]?arguments[0]:0,n=arguments.length>1&&void 0!==arguments[1]?arguments[1]:0;if(!t&&!n)return this;var e=this.m;return e[4]+=e[0]*t+e[2]*n,e[5]+=e[1]*t+e[3]*n,this.w=this.s=this.i=null,this}},{key:"rotateSelf",value:function(){var t=arguments.length>0&&void 0!==arguments[0]?arguments[0]:0;if(t%=360){var n=O(t*=R),e=j(t),r=this.m,i=r[0],o=r[1];r[0]=i*e+r[2]*n,r[1]=o*e+r[3]*n,r[2]=r[2]*e-i*n,r[3]=r[3]*e-o*n,this.w=this.s=this.i=null}return this}},{key:"scaleSelf",value:function(){var t=arguments.length>0&&void 0!==arguments[0]?arguments[0]:1,n=arguments.length>1&&void 0!==arguments[1]?arguments[1]:1;if(1!==t||1!==n){var e=this.m;e[0]*=t,e[1]*=t,e[2]*=n,e[3]*=n,this.w=this.s=this.i=null}return this}},{key:"skewSelf",value:function(t,n){if(n%=360,(t%=360)||n){var e=this.m,r=e[0],i=e[1],o=e[2],u=e[3];t&&(t=P(t*R),e[2]+=r*t,e[3]+=i*t),n&&(n=P(n*R),e[0]+=o*n,e[1]+=u*n),this.w=this.s=this.i=null}return this}},{key:"resetSelf",value:function(){var t=arguments.length>0&&void 0!==arguments[0]?arguments[0]:1,n=arguments.length>1&&void 0!==arguments[1]?arguments[1]:0,e=arguments.length>2&&void 0!==arguments[2]?arguments[2]:0,r=arguments.length>3&&void 0!==arguments[3]?arguments[3]:1,i=arguments.length>4&&void 0!==arguments[4]?arguments[4]:0,o=arguments.length>5&&void 0!==arguments[5]?arguments[5]:0,u=this.m;return u[0]=t,u[1]=n,u[2]=e,u[3]=r,u[4]=i,u[5]=o,this.w=this.s=this.i=null,this}},{key:"recomposeSelf",value:function(){var t=arguments.length>0&&void 0!==arguments[0]?arguments[0]:null,n=arguments.length>1&&void 0!==arguments[1]?arguments[1]:null,e=arguments.length>2&&void 0!==arguments[2]?arguments[2]:null,r=arguments.length>3&&void 0!==arguments[3]?arguments[3]:null,i=arguments.length>4&&void 0!==arguments[4]?arguments[4]:null;return this.isIdentity||this.resetSelf(),t&&(t.x||t.y)&&this.translateSelf(t.x,t.y),n&&this.rotateSelf(n),e&&(e.x&&this.skewSelf(e.x,0),e.y&&this.skewSelf(0,e.y)),!r||1===r.x&&1===r.y||this.scaleSelf(r.x,r.y),i&&(i.x||i.y)&&this.translateSelf(i.x,i.y),this}},{key:"decompose",value:function(){var t=arguments.length>0&&void 0!==arguments[0]?arguments[0]:0,n=arguments.length>1&&void 0!==arguments[1]?arguments[1]:0,e=this.m,r=e[0]*e[0]+e[1]*e[1],i=[[e[0],e[1]],[e[2],e[3]]],o=N(r);if(0===o)return{origin:{x:p(e[4]),y:p(e[5])},translate:{x:p(t),y:p(n)},scale:{x:0,y:0},skew:{x:0,y:0},rotate:0};i[0][0]/=o,i[0][1]/=o;var u=e[0]*e[3]-e[1]*e[2]<0;u&&(o=-o);var a=i[0][0]*i[1][0]+i[0][1]*i[1][1];i[1][0]-=i[0][0]*a,i[1][1]-=i[0][1]*a;var l=N(i[1][0]*i[1][0]+i[1][1]*i[1][1]);if(0===l)return{origin:{x:p(e[4]),y:p(e[5])},translate:{x:p(t),y:p(n)},scale:{x:p(o),y:0},skew:{x:0,y:0},rotate:0};i[1][0]/=l,i[1][1]/=l,a/=l;var s=0;return i[1][1]<0?(s=M(i[1][1])*F,i[0][1]<0&&(s=360-s)):s=E(i[0][1])*F,u&&(s=-s),a=I(a,N(i[0][0]*i[0][0]+i[0][1]*i[0][1]))*F,u&&(a=-a),{origin:{x:p(e[4]),y:p(e[5])},translate:{x:p(t),y:p(n)},scale:{x:p(o),y:p(l)},skew:{x:p(a),y:0},rotate:p(s)}}},{key:"clone",value:function(){var t=this.m;return new this.constructor(t[0],t[1],t[2],t[3],t[4],t[5])}},{key:"toString",value:function(){var t=arguments.length>0&&void 0!==arguments[0]?arguments[0]:" ";if(null===this.s){var n=this.m.map((function(t){return p(t)}));1===n[0]&&0===n[1]&&0===n[2]&&1===n[3]?this.s="translate("+n[4]+t+n[5]+")":this.s="matrix("+n.join(t)+")"}return this.s}}],[{key:"create",value:function(t){return t?Array.isArray(t)?f(this,v(t)):t instanceof this?t.clone():(new this).recomposeSelf(t.origin,t.rotate,t.skew,t.scale,t.translate):new this}}]),t}();function q(t,n,e){return t>=.5?e:n}function B(t,n,e){return 0===t||n===e?n:t*(e-n)+n}function D(t,n,e){var r=B(t,n,e);return r<=0?0:r}function L(t,n,e){var r=B(t,n,e);return r<=0?0:r>=1?1:r}function C(t,n,e){return 0===t?n:1===t?e:{x:B(t,n.x,e.x),y:B(t,n.y,e.y)}}function V(t,n,e){var r=function(t,n,e){return Math.round(B(t,n,e))}(t,n,e);return r<=0?0:r>=255?255:r}function G(t,n,e){return 0===t?n:1===t?e:{r:V(t,n.r,e.r),g:V(t,n.g,e.g),b:V(t,n.b,e.b),a:B(t,null==n.a?1:n.a,null==e.a?1:e.a)}}function z(t,n){for(var e=[],r=0;r<t;r++)e.push(n);return e}function Y(t,n){if(--n<=0)return t;var e=(t=Object.assign([],t)).length;do{for(var r=0;r<e;r++)t.push(t[r])}while(--n>0);return t}var $,U=function(){function t(n){r(this,t),this.list=n,this.length=n.length}return o(t,[{key:"setAttribute",value:function(t,n){for(var e=this.list,r=0;r<this.length;r++)e[r].setAttribute(t,n)}},{key:"removeAttribute",value:function(t){for(var n=this.list,e=0;e<this.length;e++)n[e].removeAttribute(t)}},{key:"style",value:function(t,n){for(var e=this.list,r=0;r<this.length;r++)e[r].style[t]=n}}]),t}(),Q=/-./g,H=function(t,n){return n.toUpperCase()};function J(t){return"function"==typeof t?t:q}function Z(t){return t?"function"==typeof t?t:Array.isArray(t)?function(t){var n=arguments.length>1&&void 0!==arguments[1]?arguments[1]:w;if(!Array.isArray(t))return n;switch(t.length){case 1:return S(t[0])||n;case 2:return S(t[0],t[1])||n;case 4:return _(t[0],t[1],t[2],t[3])||n}return n}(t,null):function(t,n){var e=arguments.length>2&&void 0!==arguments[2]?arguments[2]:w;switch(t){case"linear":return w;case"steps":return S(n.steps||1,n.jump||0)||e;case"bezier":case"cubic-bezier":return _(n.x1||0,n.y1||0,n.x2||0,n.y2||0)||e}return e}(t.type,t.value,null):null}function K(t,n,e){var r=arguments.length>3&&void 0!==arguments[3]&&arguments[3],i=n.length-1;if(t<=n[0].t)return r?[0,0,n[0].v]:n[0].v;if(t>=n[i].t)return r?[i,1,n[i].v]:n[i].v;var o,u=n[0],a=null;for(o=1;o<=i;o++){if(!(t>n[o].t)){a=n[o];break}u=n[o]}return null==a?r?[i,1,n[i].v]:n[i].v:u.t===a.t?r?[o,1,a.v]:a.v:(t=(t-u.t)/(a.t-u.t),u.e&&(t=u.e(t)),r?[o,t,e(t,u.v,a.v)]:e(t,u.v,a.v))}function W(t,n){var e=arguments.length>2&&void 0!==arguments[2]?arguments[2]:null;return t&&t.length?"function"!=typeof n?null:("function"!=typeof e&&(e=null),function(r){var i=K(r,t,n);return null!=i&&e&&(i=e(i)),i}):null}function X(t,n){return t.t-n.t}function tt(t,n,r,i,o){var u,a="@"===r[0],l="#"===r[0],s=$[r],f=q;switch(a?(u=r.substr(1),r=u.replace(Q,H)):l&&(r=r.substr(1)),e(s)){case"function":if(f=s(i,o,K,Z,r,a,n,t),l)return f;break;case"string":f=W(i,J(s));break;case"object":if((f=W(i,J(s.i),s.f))&&"function"==typeof s.u)return s.u(n,f,r,a,t)}return f?function(t,n,e){if(arguments.length>3&&void 0!==arguments[3]&&arguments[3])return t instanceof U?function(r){return t.style(n,e(r))}:function(r){return t.style[n]=e(r)};if(Array.isArray(n)){var r=n.length;return function(i){var o=e(i);if(null==o)for(var u=0;u<r;u++)t[u].removeAttribute(n);else for(var a=0;a<r;a++)t[a].setAttribute(n,o)}}return function(r){var i=e(r);null==i?t.removeAttribute(n):t.setAttribute(n,i)}}(n,r,f,a):null}function nt(t,n,r,i){if(!i||"object"!==e(i))return null;var o=null,u=null;return Array.isArray(i)?u=function(t){if(!t||!t.length)return null;for(var n=0;n<t.length;n++)t[n].e&&(t[n].e=Z(t[n].e));return t.sort(X)}(i):(u=i.keys,o=i.data||null),u?tt(t,n,r,u,o):null}function et(t,n,e){if(!e)return null;var r=[];for(var i in e)if(e.hasOwnProperty(i)){var o=nt(t,n,i,e[i]);o&&r.push(o)}return r.length?r:null}function rt(t,n){if(!n.settings.duration||n.settings.duration<0)return null;var e,r,i,o,u,a=function(t,n){if(!n)return null;var e=[];if(Array.isArray(n))for(var r=n.length,i=0;i<r;i++){var o=n[i];if(2===o.length){var u=null;if("string"==typeof o[0])u=t.getElementById(o[0]);else if(Array.isArray(o[0])){u=[];for(var a=0;a<o[0].length;a++)if("string"==typeof o[0][a]){var l=t.getElementById(o[0][a]);l&&u.push(l)}u=u.length?1===u.length?u[0]:new U(u):null}if(u){var s=et(t,u,o[1]);s&&(e=e.concat(s))}}}else for(var f in n)if(n.hasOwnProperty(f)){var c=t.getElementById(f);if(c){var h=et(t,c,n[f]);h&&(e=e.concat(h))}}return e.length?e:null}(t,n.elements);return a?(e=a,r=n.settings,i=r.duration,o=e.length,u=null,function(t,n){var a=r.iterations||1/0,l=(r.alternate&&a%2==0)^r.direction>0?i:0,s=t%i,f=1+(t-s)/i;n*=r.direction,r.alternate&&f%2==0&&(n=-n);var c=!1;if(f>a)s=l,c=!0,-1===r.fill&&(s=r.direction>0?0:i);else if(n<0&&(s=i-s),s===u)return!1;u=s;for(var h=0;h<o;h++)e[h](s);return c}):null}function it(t,n){for(var e=n.querySelectorAll("svg"),r=0;r<e.length;r++)if(e[r].id===t.root&&!e[r].svgatorAnimation)return e[r].svgatorAnimation=!0,e[r];return null}function ot(t){var n=function(t){return t.shadowRoot};return document?Array.from(t.querySelectorAll(":not("+["a","area","audio","br","canvas","circle","datalist","embed","g","head","hr","iframe","img","input","link","object","path","polygon","rect","script","source","style","svg","title","track","video"].join()+")")).filter(n).map(n):[]}function ut(t){var n=arguments.length>1&&void 0!==arguments[1]?arguments[1]:document,e=arguments.length>2&&void 0!==arguments[2]?arguments[2]:0,r=it(t,n);if(r)return r;if(e>=20)return null;for(var i=ot(n),o=0;o<i.length;o++){var u=ut(t,i[o],e+1);if(u)return u}return null}function at(t,n){if($=n,!t||!t.root||!Array.isArray(t.animations))return null;var e=ut(t);if(!e)return null;var r=t.animations.map((function(t){return rt(e,t)})).filter((function(t){return!!t}));return r.length?{svg:e,animations:r,animationSettings:t.animationSettings,options:t.options||void 0}:null}function lt(t){var n=arguments.length>1&&void 0!==arguments[1]?arguments[1]:null,e=arguments.length>2&&void 0!==arguments[2]?arguments[2]:Number,r=arguments.length>3&&void 0!==arguments[3]?arguments[3]:"undefined"!=typeof BigInt&&BigInt,i="0x"+(t.replace(/[^0-9a-fA-F]+/g,"")||27);return n&&r&&e.isSafeInteger&&!e.isSafeInteger(+i)?e(r(i))%n+n:+i}function st(t,n,e){return!t||!e||n>t.length?t:t.substring(0,n)+st(t.substring(n+1),e,e)}function ft(t){var n=arguments.length>1&&void 0!==arguments[1]?arguments[1]:27;return!t||t%n?t%n:[0,1].includes(n)?n:ft(t/n,n)}function ct(t,n,e){if(t&&t.length){var r=lt(e),i=ft(r)+5,o=st(t,ft(r,5),i);return o=o.replace(/\x7c$/g,"==").replace(/\x2f$/g,"="),o=function(t,n,e){var r=+("0x"+t.substring(0,4));t=t.substring(4);for(var i=lt(n,r)%r+e%27,o=[],u=0;u<t.length;u+=2)if("|"!==t[u]){var a=+("0x"+t[u]+t[u+1])-i;o.push(a)}else{var l=+("0x"+t.substring(u+1,u+1+4))-i;u+=3,o.push(l)}return String.fromCharCode.apply(String,o)}(o=(o=atob(o)).replace(/[\x41-\x5A]/g,""),n,r),o=JSON.parse(o)}}var ht=[{key:"alternate",def:!1},{key:"fill",def:1},{key:"iterations",def:0},{key:"direction",def:1},{key:"speed",def:1},{key:"fps",def:100}],vt=function(){function t(n,e){var i=this,o=arguments.length>2&&void 0!==arguments[2]?arguments[2]:null;r(this,t),this._id=0,this._running=!1,this._rollingBack=!1,this._animations=n,this._settings=e,(!o||o<"2022-05-02")&&delete this._settings.speed,ht.forEach((function(t){i._settings[t.key]=i._settings[t.key]||t.def})),this.duration=e.duration,this.offset=e.offset||0,this.rollbackStartOffset=0}return o(t,[{key:"alternate",get:function(){return this._settings.alternate}},{key:"fill",get:function(){return this._settings.fill}},{key:"iterations",get:function(){return this._settings.iterations}},{key:"direction",get:function(){return this._settings.direction}},{key:"speed",get:function(){return this._settings.speed}},{key:"fps",get:function(){return this._settings.fps}},{key:"maxFiniteDuration",get:function(){return this.iterations>0?this.iterations*this.duration:this.duration}},{key:"_apply",value:function(t){for(var n=arguments.length>1&&void 0!==arguments[1]?arguments[1]:{},e=this._animations,r=e.length,i=0,o=0;o<r;o++)n[o]?i++:(n[o]=e[o](t,1),n[o]&&i++);return i}},{key:"_rollback",value:function(t){var n=this,e=1/0,r=null;this.rollbackStartOffset=t,this._rollingBack=!0,this._running=!0;this._id=window.requestAnimationFrame((function i(o){if(n._rollingBack){null==r&&(r=o);var u=Math.round(t-(o-r)*n.speed);if(u>n.duration&&e!==1/0){var a=!!n.alternate&&u/n.duration%2>1,l=u%n.duration;u=(l+=a?n.duration:0)||n.duration}var s=(n.fps?1e3/n.fps:0)*n.speed,f=Math.max(0,u);f<=e-s&&(n.offset=f,e=f,n._apply(f));var c=n.iterations>0&&-1===n.fill&&u>=n.maxFiniteDuration;(u<=0||n.offset<u||c)&&n.stop(),n._id=window.requestAnimationFrame(i)}}))}},{key:"_start",value:function(){var t=this,n=arguments.length>0&&void 0!==arguments[0]?arguments[0]:0,e=-1/0,r=null,i={};this._running=!0;var o=function o(u){null==r&&(r=u);var a=Math.round((u-r)*t.speed+n),l=(t.fps?1e3/t.fps:0)*t.speed;if(a>=e+l&&!t._rollingBack&&(t.offset=a,e=a,t._apply(a,i)===t._animations.length))return void t.pause(!0);t._id=window.requestAnimationFrame(o)};this._id=window.requestAnimationFrame(o)}},{key:"_pause",value:function(){this._id&&window.cancelAnimationFrame(this._id),this._running=!1}},{key:"play",value:function(){if(!this._running)return this._rollingBack?this._rollback(this.offset):this._start(this.offset)}},{key:"stop",value:function(){this._pause(),this.offset=0,this.rollbackStartOffset=0,this._rollingBack=!1,this._apply(0)}},{key:"reachedToEnd",value:function(){return this.iterations>0&&this.offset>=this.iterations*this.duration}},{key:"restart",value:function(){var t=arguments.length>0&&void 0!==arguments[0]&&arguments[0];this.stop(t),this.play(t)}},{key:"pause",value:function(){this._pause()}},{key:"reverse",value:function(){this.direction=-this.direction}}],[{key:"build",value:function(t,n){delete t.animationSettings,t.options=ct(t.options,t.root,"5c7f360c"),t.animations.map((function(n){n.settings=ct(n.s,t.root,"5c7f360c"),delete n.s,t.animationSettings||(t.animationSettings=n.settings)}));var e=t.version;if(!(t=at(t,n)))return null;var r=t.options||{},i=new this(t.animations,t.animationSettings,e);return{el:t.svg,options:r,player:i}}},{key:"push",value:function(t){return this.build(t)}},{key:"init",value:function(){var t=this,n=window.__SVGATOR_PLAYER__&&window.__SVGATOR_PLAYER__["5c7f360c"];Array.isArray(n)&&n.splice(0).forEach((function(n){return t.build(n)}))}}]),t}();function yt(t){return p(t)+""}function gt(t){var n=arguments.length>1&&void 0!==arguments[1]?arguments[1]:" ";return t&&t.length?t.map(yt).join(n):""}function dt(t){if(!t)return"transparent";if(null==t.a||t.a>=1){var n=function(t){return 1===(t=parseInt(t).toString(16)).length?"0"+t:t},e=function(t){return t.charAt(0)===t.charAt(1)},r=n(t.r),i=n(t.g),o=n(t.b);return e(r)&&e(i)&&e(o)&&(r=r.charAt(0),i=i.charAt(0),o=o.charAt(0)),"#"+r+i+o}return"rgba("+t.r+","+t.g+","+t.b+","+t.a+")"}function pt(t){return t?"url(#"+t+")":"none"}!function(){for(var t=0,n=["ms","moz","webkit","o"],e=0;e<n.length&&!window.requestAnimationFrame;++e)window.requestAnimationFrame=window[n[e]+"RequestAnimationFrame"],window.cancelAnimationFrame=window[n[e]+"CancelAnimationFrame"]||window[n[e]+"CancelRequestAnimationFrame"];window.requestAnimationFrame||(window.requestAnimationFrame=function(n){var e=Date.now(),r=Math.max(0,16-(e-t)),i=window.setTimeout((function(){n(e+r)}),r);return t=e+r,i},window.cancelAnimationFrame=window.clearTimeout)}();var mt={f:null,i:function(t,n,e){return 0===t?n:1===t?e:{x:D(t,n.x,e.x),y:D(t,n.y,e.y)}},u:function(t,n){return function(e){var r=n(e);t.setAttribute("rx",yt(r.x)),t.setAttribute("ry",yt(r.y))}}},bt={f:null,i:function(t,n,e){return 0===t?n:1===t?e:{width:D(t,n.width,e.width),height:D(t,n.height,e.height)}},u:function(t,n){return function(e){var r=n(e);t.setAttribute("width",yt(r.width)),t.setAttribute("height",yt(r.height))}}};Object.freeze({M:2,L:2,Z:0,H:1,V:1,C:6,Q:4,T:2,S:4,A:7});var wt={},At=null;function _t(t){var n=function(){if(At)return At;if("object"!==("undefined"==typeof document?"undefined":e(document))||!document.createElementNS)return{};var t=document.createElementNS("http://www.w3.org/2000/svg","svg");return t&&t.style?(t.style.position="absolute",t.style.opacity="0.01",t.style.zIndex="-9999",t.style.left="-9999px",t.style.width="1px",t.style.height="1px",At={svg:t}):{}}().svg;if(!n)return function(t){return null};var r=document.createElementNS(n.namespaceURI,"path");r.setAttributeNS(null,"d",t),r.setAttributeNS(null,"fill","none"),r.setAttributeNS(null,"stroke","none"),n.appendChild(r);var i=r.getTotalLength();return function(t){var n=r.getPointAtLength(i*t);return{x:n.x,y:n.y}}}function xt(t){return wt[t]?wt[t]:wt[t]=_t(t)}function kt(t,n,e,r){if(!t||!r)return!1;var i=["M",t.x,t.y];if(n&&e&&(i.push("C"),i.push(n.x),i.push(n.y),i.push(e.x),i.push(e.y)),n?!e:e){var o=n||e;i.push("Q"),i.push(o.x),i.push(o.y)}return n||e||i.push("L"),i.push(r.x),i.push(r.y),i.join(" ")}function St(t,n,e,r){var i=arguments.length>4&&void 0!==arguments[4]?arguments[4]:1,o=kt(t,n,e,r),u=xt(o);try{return u(i)}catch(t){return null}}function Ot(t,n,e){return t+(n-t)*e}function jt(t,n,e){var r=arguments.length>3&&void 0!==arguments[3]&&arguments[3],i={x:Ot(t.x,n.x,e),y:Ot(t.y,n.y,e)};return r&&(i.a=Mt(t,n)),i}function Mt(t,n){return Math.atan2(n.y-t.y,n.x-t.x)}function Et(t,n,e,r){var i=1-r;return i*i*t+2*i*r*n+r*r*e}function Pt(t,n,e,r){return 2*(1-r)*(n-t)+2*r*(e-n)}function It(t,n,e,r){var i=arguments.length>4&&void 0!==arguments[4]&&arguments[4],o=St(t,n,null,e,r);return o||(o={x:Et(t.x,n.x,e.x,r),y:Et(t.y,n.y,e.y,r)}),i&&(o.a=Rt(t,n,e,r)),o}function Rt(t,n,e,r){return Math.atan2(Pt(t.y,n.y,e.y,r),Pt(t.x,n.x,e.x,r))}function Ft(t,n,e,r,i){var o=i*i;return i*o*(r-t+3*(n-e))+3*o*(t+e-2*n)+3*i*(n-t)+t}function Nt(t,n,e,r,i){var o=1-i;return 3*(o*o*(n-t)+2*o*i*(e-n)+i*i*(r-e))}function Tt(t,n,e,r,i){var o=arguments.length>5&&void 0!==arguments[5]&&arguments[5],u=St(t,n,e,r,i);return u||(u={x:Ft(t.x,n.x,e.x,r.x,i),y:Ft(t.y,n.y,e.y,r.y,i)}),o&&(u.a=qt(t,n,e,r,i)),u}function qt(t,n,e,r,i){return Math.atan2(Nt(t.y,n.y,e.y,r.y,i),Nt(t.x,n.x,e.x,r.x,i))}function Bt(t,n,e){var r=arguments.length>3&&void 0!==arguments[3]&&arguments[3];if(Lt(n)){if(Ct(e))return It(n,e.start,e,t,r)}else if(Lt(e)){if(Vt(n))return It(n,n.end,e,t,r)}else{if(Vt(n))return Ct(e)?Tt(n,n.end,e.start,e,t,r):It(n,n.end,e,t,r);if(Ct(e))return It(n,e.start,e,t,r)}return jt(n,e,t,r)}function Dt(t,n,e){var r=Bt(t,n,e,!0);return r.a=function(t){return arguments.length>1&&void 0!==arguments[1]&&arguments[1]?t+Math.PI:t}(r.a)/b,r}function Lt(t){return!t.type||"corner"===t.type}function Ct(t){return null!=t.start&&!Lt(t)}function Vt(t){return null!=t.end&&!Lt(t)}var Gt=new T;var zt={f:yt,i:B},Yt={f:yt,i:L};function $t(t,n,e){return t.map((function(t){return function(t,n,e){var r=t.v;if(!r||"g"!==r.t||r.s||!r.v||!r.r)return t;var i=e.getElementById(r.r),o=i&&i.querySelectorAll("stop")||[];return r.s=r.v.map((function(t,n){var e=o[n]&&o[n].getAttribute("offset");return{c:t,o:e=p(parseInt(e)/100)}})),delete r.v,t}(t,0,e)}))}var Ut={gt:"gradientTransform",c:{x:"cx",y:"cy"},rd:"r",f:{x:"x1",y:"y1"},to:{x:"x2",y:"y2"}};function Qt(t,n,r,i,o,u,a,l){return $t(t,0,l),n=function(t,n,e){for(var r,i,o,u=t.length-1,a={},l=0;l<=u;l++)(r=t[l]).e&&(r.e=n(r.e)),r.v&&"g"===(i=r.v).t&&i.r&&(o=e.getElementById(i.r))&&(a[i.r]={e:o,s:o.querySelectorAll("stop")});return a}(t,i,l),function(i){var o=r(i,t,Ht);if(!o)return"none";if("c"===o.t)return dt(o.v);if("g"===o.t){if(!n[o.r])return pt(o.r);var u=n[o.r];return function(t,n){for(var e=t.s,r=e.length;r<n.length;r++){var i=e[e.length-1].cloneNode();i.id=Kt(i.id),t.e.appendChild(i),e=t.s=t.e.querySelectorAll("stop")}for(var o=0,u=e.length,a=n.length-1;o<u;o++)e[o].setAttribute("stop-color",dt(n[Math.min(o,a)].c)),e[o].setAttribute("offset",n[Math.min(o,a)].o)}(u,o.s),Object.keys(Ut).forEach((function(t){if(void 0!==o[t])if("object"!==e(Ut[t])){var n,r="gt"===t?(n=o[t],Array.isArray(n)?"matrix("+n.join(" ")+")":""):o[t],i=Ut[t];u.e.setAttribute(i,r)}else Object.keys(Ut[t]).forEach((function(n){if(void 0!==o[t][n]){var e=o[t][n],r=Ut[t][n];u.e.setAttribute(r,e)}}))})),pt(o.r)}return"none"}}function Ht(t,e,r){if(0===t)return e;if(1===t)return r;if(e&&r){var i=e.t;if(i===r.t)switch(e.t){case"c":return{t:i,v:G(t,e.v,r.v)};case"g":if(e.r===r.r){var o={t:i,s:Jt(t,e.s,r.s),r:e.r};return e.gt&&r.gt&&(o.gt=function(t,n,e){var r=n.length;if(r!==e.length)return q(t,n,e);for(var i=new Array(r),o=0;o<r;o++)i[o]=B(t,n[o],e[o]);return i}(t,e.gt,r.gt)),e.c?(o.c=C(t,e.c,r.c),o.rd=D(t,e.rd,r.rd)):e.f&&(o.f=C(t,e.f,r.f),o.to=C(t,e.to,r.to)),o}}if("c"===e.t&&"g"===r.t||"c"===r.t&&"g"===e.t){var u="c"===e.t?e:r,a="g"===e.t?n({},e):n({},r),l=a.s.map((function(t){return{c:u.v,o:t.o}}));return a.s="c"===e.t?Jt(t,l,a.s):Jt(t,a.s,l),a}}return q(t,e,r)}function Jt(t,n,e){if(n.length===e.length)return n.map((function(n,r){return Zt(t,n,e[r])}));for(var r=Math.max(n.length,e.length),i=[],o=0;o<r;o++){var u=Zt(t,n[Math.min(o,n.length-1)],e[Math.min(o,e.length-1)]);i.push(u)}return i}function Zt(t,n,e){return{o:L(t,n.o,e.o||0),c:G(t,n.c,e.c||{})}}function Kt(t){return t.replace(/-fill-([0-9]+)$/,(function(t,n){return"-fill-"+(+n+1)}))}var Wt={fill:Qt,"fill-opacity":Yt,stroke:Qt,"stroke-opacity":Yt,"stroke-width":zt,"stroke-dashoffset":{f:yt,i:B},"stroke-dasharray":{f:function(t){var n=arguments.length>1&&void 0!==arguments[1]?arguments[1]:" ";return t&&t.length>0&&(t=t.map((function(t){return p(t,4)}))),gt(t,n)},i:function(t,n,e){var r,i,o,u=n.length,a=e.length;if(u!==a)if(0===u)n=z(u=a,0);else if(0===a)a=u,e=z(u,0);else{var l=(o=(r=u)*(i=a)/function(t,n){for(var e;n;)e=n,n=t%n,t=e;return t||1}(r,i))<0?-o:o;n=Y(n,Math.floor(l/u)),e=Y(e,Math.floor(l/a)),u=a=l}for(var s=[],f=0;f<u;f++)s.push(p(D(t,n[f],e[f])));return s}},opacity:Yt,transform:function(t,n,r,i){if(!(t=function(t,n){if(!t||"object"!==e(t))return null;var r=!1;for(var i in t)t.hasOwnProperty(i)&&(t[i]&&t[i].length?(t[i].forEach((function(t){t.e&&(t.e=n(t.e))})),r=!0):delete t[i]);return r?t:null}(t,i)))return null;var o=function(e,i,o){var u=arguments.length>3&&void 0!==arguments[3]?arguments[3]:null;return t[e]?r(i,t[e],o):n&&n[e]?n[e]:u};return n&&n.a&&t.o?function(n){var e=r(n,t.o,Dt);return Gt.recomposeSelf(e,o("r",n,B,0)+e.a,o("k",n,C),o("s",n,C),o("t",n,C)).toString()}:function(t){return Gt.recomposeSelf(o("o",t,Bt,null),o("r",t,B,0),o("k",t,C),o("s",t,C),o("t",t,C)).toString()}},r:zt,"#size":bt,"#radius":mt,_:function(t,n){if(Array.isArray(t))for(var e=0;e<t.length;e++)this[t[e]]=n;else this[t]=n}},Xt=function(t){!function(t,n){if("function"!=typeof n&&null!==n)throw new TypeError("Super expression must either be null or a function");t.prototype=Object.create(n&&n.prototype,{constructor:{value:t,writable:!0,configurable:!0}}),n&&l(t,n)}(u,t);var n,e,i=(n=u,e=s(),function(){var t,r=a(n);if(e){var i=a(this).constructor;t=Reflect.construct(r,arguments,i)}else t=r.apply(this,arguments);return c(this,t)});function u(){return r(this,u),i.apply(this,arguments)}return o(u,null,[{key:"build",value:function(t){var n=h(a(u),"build",this).call(this,t,Wt);if(!n)return null;n.el,n.options,function(t,n,e){t.play()}(n.player)}}]),u}(vt);return Xt.init(),Xt}));
(function(s,i,o,w,d,a,b){w[o]=w[o]||{};w[o][s]=w[o][s]||[];w[o][s].push(i);})('5c7f360c',{"root":"eyeLigYnQau1","version":"2022-05-04","animations":[{"elements":{"eyeLigYnQau2":{"transform":{"data":{"t":{"x":-71.572502,"y":-171.740997}},"keys":{"o":[{"t":0,"v":{"x":-78.921146,"y":171.740997,"type":"corner"}},{"t":3000,"v":{"x":208.691503,"y":171.740997,"type":"corner"}}]}}},"eyeLigYnQau3":{"transform":{"data":{"t":{"x":-450.260498,"y":-41.4217}},"keys":{"o":[{"t":0,"v":{"x":624.180782,"y":104.853,"type":"corner"}},{"t":3000,"v":{"x":379.187999,"y":104.853,"type":"corner"}}]}}},"eyeLigYnQau4":{"transform":{"data":{"o":{"x":119.635002,"y":86.223751,"type":"corner"},"t":{"x":-119.635002,"y":-86.223751}},"keys":{"r":[{"t":0,"v":0},{"t":1500,"v":180},{"t":3000,"v":0}]}}},"eyeLigYnQau5":{"transform":{"data":{"o":{"x":485.91449,"y":173.391502,"type":"corner"},"t":{"x":-485.91449,"y":-173.391502}},"keys":{"r":[{"t":0,"v":0},{"t":1500,"v":180},{"t":3000,"v":0}]}}},"eyeLigYnQau6":{"transform":{"data":{"o":{"x":170.602997,"y":50.618402,"type":"corner"},"t":{"x":-170.602997,"y":-50.618402}},"keys":{"r":[{"t":10,"v":0},{"t":1500,"v":-180},{"t":3000,"v":0}]}}},"eyeLigYnQau11":{"opacity":[{"t":0,"v":1},{"t":1500,"v":0.3},{"t":3000,"v":1}]},"eyeLigYnQau12":{"opacity":[{"t":0,"v":0.3},{"t":1500,"v":1},{"t":3000,"v":0.3}]},"eyeLigYnQau13":{"opacity":[{"t":0,"v":1},{"t":1500,"v":0.3},{"t":3000,"v":1}]},"eyeLigYnQau16":{"opacity":[{"t":0,"v":0.3},{"t":1500,"v":1},{"t":3000,"v":0.3}]},"eyeLigYnQau37":{"transform":{"data":{"t":{"x":-266.0895,"y":-177.845001}},"keys":{"o":[{"t":0,"v":{"x":266.089501,"y":177.845002,"type":"corner"}},{"t":1500,"v":{"x":249.529001,"y":298.180993,"type":"corner"}},{"t":3000,"v":{"x":266.089501,"y":177.845002,"type":"corner"}}],"r":[{"t":0,"v":0},{"t":1500,"v":26.386718},{"t":3000,"v":0}]}}},"eyeLigYnQau41":{"transform":{"data":{"t":{"x":-71.623776,"y":-264.802704}},"keys":{"o":[{"t":0,"v":{"x":71.623776,"y":264.802704,"type":"corner"}},{"t":1500,"v":{"x":61.852283,"y":269.70173,"type":"corner"}},{"t":3000,"v":{"x":71.623776,"y":264.802704,"type":"corner"}}],"r":[{"t":0,"v":0},{"t":1500,"v":-14.503576},{"t":3000,"v":0}]}}},"eyeLigYnQau48":{"transform":{"data":{"t":{"x":-260.52401,"y":-128.354}},"keys":{"o":[{"t":0,"v":{"x":260.52401,"y":128.354,"type":"corner"}},{"t":1500,"v":{"x":260.52401,"y":249.633947,"type":"corner"}},{"t":3000,"v":{"x":260.52401,"y":128.354,"type":"corner"}}]}}},"eyeLigYnQau53":{"transform":{"data":{"o":{"x":260.523507,"y":67.35985,"type":"corner"},"t":{"x":-260.523506,"y":-67.35985}},"keys":{"s":[{"t":0,"v":{"x":1,"y":1}},{"t":1500,"v":{"x":1,"y":3.714457}},{"t":3000,"v":{"x":1,"y":1}}]}}},"eyeLigYnQau71":{"transform":{"data":{"o":{"x":507.218338,"y":282.409493,"type":"corner"},"t":{"x":-507.218338,"y":-282.409492}},"keys":{"r":[{"t":0,"v":0},{"t":1500,"v":9.806175},{"t":3000,"v":0}]}}}},"s":"MQDA1ZGQ4N2ZjMWQyY2NZiZUtkMWM2Y2NjYkEH3Zjk3VjkwOGQ4ZFc4OZDg5N2ZjMUNjNmNmYNzJjMGQxYzZjY2NiN2YY5NzhlODk3ZmM2ZDFWjMkRjZmJlZDFjNkxjHY2NiTGQwTDdmOTc4ZNDg5STdmYzNjNmM5YzVlJN2Y5NzhlUDg5TzdRmYmVjOWQxYzJjZmNiNYmVkMWMyN2Y5N2MzVVmJlYzlkMGMyODk3ZmIQwY2RjMmMyYzE3ZjkO3OGU4OVA3ZmMzY2RWDZDA3Zjk3OGU4ZDhkRT2Rh"}],"options":"MHDAxMDg4MmY4MFY4MTCZlN2Y4MVYyZjQ3MmYH3OTdjNmVLNzEyZjhhG"},'__SVGATOR_PLAYER__',window,document)
]]></script>
</svg>
