<svg width="300" height="234" viewBox="0 0 300 234" fill="none" xmlns="http://www.w3.org/2000/svg">
<path d="M315.602 278.253C399.777 278.253 468.014 216.048 468.014 139.315C468.014 62.5814 399.777 0.376709 315.602 0.376709C231.427 0.376709 163.189 62.5814 163.189 139.315C163.189 216.048 231.427 278.253 315.602 278.253Z" fill="#3C569F"/>
<path d="M377.531 166.871V302.946C377.531 306.123 374.385 308.704 370.9 308.704H165.711C162.225 308.704 159.708 306.123 159.708 302.946V166.871H377.531Z" fill="url(#paint0_linear_1220_487)"/>
<path d="M246.522 148.909H196.734L187.398 131.889H233.234C235.656 131.889 237.87 133.137 238.954 135.112L246.522 148.909Z" fill="url(#paint1_linear_1220_487)"/>
<path d="M219.861 145.686L214.061 135.112C212.977 133.137 210.763 131.889 208.341 131.889H165.617C162.18 131.889 159.708 134.429 159.708 137.562V148.909V165.929H377.531V154.582C377.531 151.449 374.431 148.909 370.993 148.909H225.582C223.159 148.909 220.945 147.662 219.861 145.686Z" fill="url(#paint2_linear_1220_487)"/>
<path d="M366.325 300.194H171.063C169.773 300.194 169.043 299.241 169.043 298.066V176.799C169.043 176.016 169.426 175.381 170.285 175.381H366.325C367.185 175.381 368.195 176.016 368.195 176.799V298.775C368.195 299.558 367.185 300.194 366.325 300.194Z" fill="url(#paint3_linear_1220_487)"/>
<path d="M368.195 188.622H169.043V175.857C169.043 175.074 169.426 174.439 170.285 174.439H366.325C367.185 174.439 368.195 175.074 368.195 175.857V188.622Z" fill="url(#paint4_linear_1220_487)"/>
<path d="M361.972 188.622H175.267V190.04H361.972V188.622Z" fill="#CCCECE"/>
<path d="M177.286 184.369C178.575 184.369 179.62 183.416 179.62 182.24C179.62 181.065 178.575 180.112 177.286 180.112C175.996 180.112 174.951 181.065 174.951 182.24C174.951 183.416 175.996 184.369 177.286 184.369Z" fill="url(#paint5_linear_1220_487)"/>
<path d="M188.179 184.369C189.469 184.369 190.514 183.416 190.514 182.24C190.514 181.065 189.469 180.112 188.179 180.112C186.89 180.112 185.845 181.065 185.845 182.24C185.845 183.416 186.89 184.369 188.179 184.369Z" fill="url(#paint6_linear_1220_487)"/>
<path d="M199.071 184.369C200.36 184.369 201.405 183.416 201.405 182.24C201.405 181.065 200.36 180.112 199.071 180.112C197.782 180.112 196.736 181.065 196.736 182.24C196.736 183.416 197.782 184.369 199.071 184.369Z" fill="url(#paint7_linear_1220_487)"/>
<path opacity="0.25" d="M204.829 146.073C204.829 147.64 203.436 148.91 201.717 148.91H173.711C171.993 148.91 170.6 147.64 170.6 146.073C170.6 144.507 171.993 143.237 173.711 143.237H201.717C203.436 143.237 204.829 144.507 204.829 146.073Z" fill="#962A00"/>
<path d="M292.588 66.3188H116.774C115.914 66.3188 115.532 66.9535 115.532 67.7372V90.4304C115.532 91.214 115.915 91.8488 116.774 91.8488H292.588C294.307 91.8488 296.014 90.5786 296.014 89.0121V69.1555C296.014 67.5883 294.307 66.3188 292.588 66.3188ZM137.315 84.7571C137.315 85.5407 136.618 86.1754 135.759 86.1754H123.312C122.452 86.1754 121.756 85.5407 121.756 84.7571V73.4105C121.756 72.6269 122.452 71.9922 123.312 71.9922H135.759C136.618 71.9922 137.315 72.6269 137.315 73.4105V84.7571ZM159.097 84.7571C159.097 85.5407 158.401 86.1754 157.541 86.1754H145.094C144.234 86.1754 143.538 85.5407 143.538 84.7571V73.4105C143.538 72.6269 144.234 71.9922 145.094 71.9922H157.541C158.401 71.9922 159.097 72.6269 159.097 73.4105V84.7571ZM180.879 84.7571C180.879 85.5407 180.183 86.1754 179.323 86.1754H166.876C166.017 86.1754 165.32 85.5407 165.32 84.7571V73.4105C165.32 72.6269 166.017 71.9922 166.876 71.9922H179.323C180.183 71.9922 180.879 72.6269 180.879 73.4105V84.7571ZM202.661 84.7571C202.661 85.5407 201.965 86.1754 201.106 86.1754H188.659C187.799 86.1754 187.103 85.5407 187.103 84.7571V73.4105C187.103 72.6269 187.799 71.9922 188.659 71.9922H201.106C201.965 71.9922 202.661 72.6269 202.661 73.4105V84.7571ZM224.444 84.7571C224.444 85.5407 223.747 86.1754 222.888 86.1754H210.441C209.581 86.1754 208.885 85.5407 208.885 84.7571V73.4105C208.885 72.6269 209.581 71.9922 210.441 71.9922H222.888C223.747 71.9922 224.444 72.6269 224.444 73.4105V84.7571ZM246.226 84.7571C246.226 85.5407 245.53 86.1754 244.67 86.1754H232.223C231.364 86.1754 230.667 85.5407 230.667 84.7571V73.4105C230.667 72.6269 231.364 71.9922 232.223 71.9922H244.67C245.53 71.9922 246.226 72.6269 246.226 73.4105V84.7571ZM268.008 84.7571C268.008 85.5407 267.312 86.1754 266.452 86.1754H254.005C253.146 86.1754 252.45 85.5407 252.45 84.7571V73.4105C252.45 72.6269 253.146 71.9922 254.005 71.9922H266.452C267.312 71.9922 268.008 72.6269 268.008 73.4105V84.7571ZM289.791 84.7571C289.791 85.5407 289.094 86.1754 288.235 86.1754H275.788C274.928 86.1754 274.232 85.5407 274.232 84.7571V73.4105C274.232 72.6269 274.928 71.9922 275.788 71.9922H288.235C289.094 71.9922 289.791 72.6269 289.791 73.4105V84.7571Z" fill="url(#paint8_linear_1220_487)"/>
<path d="M95.916 146.072C95.916 145.289 95.2197 144.654 94.3601 144.654H69.466C68.6064 144.654 67.9102 145.289 67.9102 146.072V282.232C67.9102 283.015 68.6064 283.65 69.466 283.65H94.3601C95.2197 283.65 95.916 283.015 95.916 282.232V146.072ZM89.6925 262.375C89.6925 263.159 88.9962 263.793 88.1366 263.793H75.6895C74.8299 263.793 74.1337 263.159 74.1337 262.375V251.028C74.1337 250.245 74.8299 249.61 75.6895 249.61H88.1366C88.9962 249.61 89.6925 250.245 89.6925 251.028V262.375ZM89.6925 242.518C89.6925 243.302 88.9962 243.937 88.1366 243.937H75.6895C74.8299 243.937 74.1337 243.302 74.1337 242.518V231.172C74.1337 230.388 74.8299 229.754 75.6895 229.754H88.1366C88.9962 229.754 89.6925 230.388 89.6925 231.172V242.518ZM89.6925 222.662C89.6925 223.445 88.9962 224.08 88.1366 224.08H75.6895C74.8299 224.08 74.1337 223.445 74.1337 222.662V211.315C74.1337 210.532 74.8299 209.897 75.6895 209.897H88.1366C88.9962 209.897 89.6925 210.532 89.6925 211.315V222.662ZM89.6925 202.805C89.6925 203.589 88.9962 204.224 88.1366 204.224H75.6895C74.8299 204.224 74.1337 203.589 74.1337 202.805V191.459C74.1337 190.675 74.8299 190.04 75.6895 190.04H88.1366C88.9962 190.04 89.6925 190.675 89.6925 191.459V202.805ZM89.6925 182.949C89.6925 183.732 88.9962 184.367 88.1366 184.367H75.6895C74.8299 184.367 74.1337 183.732 74.1337 182.949V171.602C74.1337 170.818 74.8299 170.184 75.6895 170.184H88.1366C88.9962 170.184 89.6925 170.818 89.6925 171.602V182.949ZM89.6925 163.092C89.6925 163.876 88.9962 164.51 88.1366 164.51H75.6895C74.8299 164.51 74.1337 163.876 74.1337 163.092V151.745C74.1337 150.962 74.8299 150.327 75.6895 150.327H88.1366C88.9962 150.327 89.6925 150.962 89.6925 151.745V163.092Z" fill="url(#paint9_linear_1220_487)"/>
<path d="M46.1287 113.451H0L16.003 87.9207H46.1287V113.451ZM10.7239 107.777H39.9052V93.594H19.6142L10.7239 107.777Z" fill="url(#paint10_linear_1220_487)"/>
<path d="M117.385 56.7173H114.587V53.8806C114.587 52.3204 112.873 51.0439 111.161 51.0439H52.038C50.3265 51.0439 49.2405 52.3197 49.2405 53.8806V56.7173H45.8145C42.376 56.7173 39.9053 59.2554 39.9053 62.3906V138.98C39.9053 142.115 42.376 144.654 45.8145 144.654H49.2405V147.49C49.2405 149.05 50.3265 150.327 52.038 150.327H111.161C112.873 150.327 114.587 149.05 114.587 147.49V144.654H117.385C120.823 144.654 123.923 142.114 123.923 138.98V62.3906C123.923 59.2554 120.823 56.7173 117.385 56.7173ZM58.5758 100.685V70.9005C58.5758 69.3404 59.6618 68.0639 61.3733 68.0639H71.0228V100.685H58.5758ZM102.14 100.685H77.2464V68.0639H98.7144C100.426 68.0639 102.14 69.3397 102.14 70.9005V100.685Z" fill="url(#paint11_linear_1220_487)"/>
<path d="M61.3736 68.064H71.0232V100.686H58.5762V70.9006C58.5762 69.3398 59.6622 68.064 61.3736 68.064Z" fill="white"/>
<path d="M102.14 70.9006V100.686H77.2461V68.064H98.7141C100.426 68.064 102.14 69.3398 102.14 70.9006Z" fill="white"/>
<path d="M98.7147 129.053H61.3736C59.6552 129.053 58.5762 127.782 58.5762 126.216V100.686H102.141V126.216C102.141 127.782 100.433 129.053 98.7147 129.053Z" fill="url(#paint12_linear_1220_487)"/>
<path d="M95.916 51.0447H89.6925V42.5347C89.6925 38.6244 86.2026 35.4431 81.9131 35.4431C77.6235 35.4431 74.1337 38.6244 74.1337 42.5347V51.0447H67.9102V42.5347C67.9102 35.4963 74.192 29.7698 81.9131 29.7698C89.6341 29.7698 95.916 35.4963 95.916 42.5347V51.0447Z" fill="url(#paint13_linear_1220_487)"/>
<path d="M111.162 150.327H52.0387C50.3202 150.327 49.2412 149.057 49.2412 147.49V144.654H114.588V147.49C114.588 149.057 112.881 150.327 111.162 150.327Z" fill="url(#paint14_linear_1220_487)"/>
<path d="M114.588 56.7173H49.2412V53.8806C49.2412 52.3141 50.3202 51.0439 52.0387 51.0439H111.162C112.881 51.0439 114.588 52.3141 114.588 53.8806V56.7173Z" fill="url(#paint15_linear_1220_487)"/>
<path d="M71.0232 68.064V100.686H58.5762V70.9006C58.5762 69.3405 59.6622 68.064 61.3736 68.064H71.0232Z" fill="url(#paint16_linear_1220_487)"/>
<path d="M102.14 70.9006V100.686H77.2461V68.064H98.7141C100.426 68.064 102.14 69.3398 102.14 70.9006Z" fill="url(#paint17_linear_1220_487)"/>
<path d="M287.29 107.778H281.066V137.563H287.29V107.778Z" fill="url(#paint18_linear_1220_487)"/>
<defs>
<linearGradient id="paint0_linear_1220_487" x1="159.708" y1="237.788" x2="377.531" y2="237.788" gradientUnits="userSpaceOnUse">
<stop stop-color="#F2F2F2"/>
<stop offset="0.4351" stop-color="#EEEEEE"/>
<stop offset="0.8852" stop-color="#E1E1E1"/>
<stop offset="1" stop-color="#DDDDDD"/>
</linearGradient>
<linearGradient id="paint1_linear_1220_487" x1="187.399" y1="140.399" x2="246.522" y2="140.399" gradientUnits="userSpaceOnUse">
<stop stop-color="#FF8312"/>
<stop offset="0.4046" stop-color="#FF8012"/>
<stop offset="0.6479" stop-color="#FF7811"/>
<stop offset="0.8478" stop-color="#FF6A0F"/>
<stop offset="1" stop-color="#FF590D"/>
</linearGradient>
<linearGradient id="paint2_linear_1220_487" x1="159.708" y1="148.909" x2="377.531" y2="148.909" gradientUnits="userSpaceOnUse">
<stop stop-color="#FF981A"/>
<stop offset="0.4844" stop-color="#FF951A"/>
<stop offset="0.7754" stop-color="#FF8D1A"/>
<stop offset="1" stop-color="#FF801A"/>
</linearGradient>
<linearGradient id="paint3_linear_1220_487" x1="168.265" y1="237.787" x2="370.912" y2="237.787" gradientUnits="userSpaceOnUse">
<stop stop-color="white"/>
<stop offset="0.5853" stop-color="#FDFDFD"/>
<stop offset="0.8337" stop-color="#F8F8F6"/>
<stop offset="1" stop-color="#F0F0EB"/>
</linearGradient>
<linearGradient id="paint4_linear_1220_487" x1="169.043" y1="181.531" x2="368.195" y2="181.531" gradientUnits="userSpaceOnUse">
<stop stop-color="white"/>
<stop offset="0.5523" stop-color="#F6F6F6"/>
<stop offset="1" stop-color="#EBEBEB"/>
</linearGradient>
<linearGradient id="paint5_linear_1220_487" x1="177.286" y1="179.979" x2="177.286" y2="184.37" gradientUnits="userSpaceOnUse">
<stop stop-color="#FF7955"/>
<stop offset="0.4556" stop-color="#FF705E"/>
<stop offset="1" stop-color="#FF5F6F"/>
</linearGradient>
<linearGradient id="paint6_linear_1220_487" x1="188.179" y1="179.779" x2="188.179" y2="184.437" gradientUnits="userSpaceOnUse">
<stop stop-color="#FFE552"/>
<stop offset="1" stop-color="#FFAE39"/>
</linearGradient>
<linearGradient id="paint7_linear_1220_487" x1="199.071" y1="180.045" x2="199.071" y2="184.369" gradientUnits="userSpaceOnUse">
<stop stop-color="#00E35E"/>
<stop offset="1" stop-color="#00B248"/>
</linearGradient>
<linearGradient id="paint8_linear_1220_487" x1="297.04" y1="79.0838" x2="117.536" y2="79.0838" gradientUnits="userSpaceOnUse">
<stop stop-color="#E5E5E5"/>
<stop offset="0.4152" stop-color="#E1E1E1"/>
<stop offset="0.8447" stop-color="#D4D4D4"/>
<stop offset="1" stop-color="#CECECE"/>
</linearGradient>
<linearGradient id="paint9_linear_1220_487" x1="81.9131" y1="280.491" x2="81.9131" y2="148.317" gradientUnits="userSpaceOnUse">
<stop stop-color="#E5E5E5"/>
<stop offset="0.4152" stop-color="#E1E1E1"/>
<stop offset="0.8447" stop-color="#D4D4D4"/>
<stop offset="1" stop-color="#CECECE"/>
</linearGradient>
<linearGradient id="paint10_linear_1220_487" x1="-0.00038897" y1="100.686" x2="46.1287" y2="100.686" gradientUnits="userSpaceOnUse">
<stop stop-color="#E5E5E5"/>
<stop offset="0.4152" stop-color="#E1E1E1"/>
<stop offset="0.8447" stop-color="#D4D4D4"/>
<stop offset="1" stop-color="#CECECE"/>
</linearGradient>
<linearGradient id="paint11_linear_1220_487" x1="32.7437" y1="56.0051" x2="118.072" y2="149.608" gradientUnits="userSpaceOnUse">
<stop stop-color="#2ECAFF"/>
<stop offset="0.2433" stop-color="#2FC6FF"/>
<stop offset="0.4954" stop-color="#33B9FF"/>
<stop offset="0.7506" stop-color="#38A5FF"/>
<stop offset="1" stop-color="#4089FF"/>
</linearGradient>
<linearGradient id="paint12_linear_1220_487" x1="80.3585" y1="100.154" x2="80.3585" y2="132.091" gradientUnits="userSpaceOnUse">
<stop stop-color="#000042" stop-opacity="0"/>
<stop offset="1" stop-color="#00004A" stop-opacity="0.07"/>
</linearGradient>
<linearGradient id="paint13_linear_1220_487" x1="81.9131" y1="28.1742" x2="81.9131" y2="52.1248" gradientUnits="userSpaceOnUse">
<stop stop-color="#E5E5E5"/>
<stop offset="0.4152" stop-color="#E1E1E1"/>
<stop offset="0.8447" stop-color="#D4D4D4"/>
<stop offset="1" stop-color="#CECECE"/>
</linearGradient>
<linearGradient id="paint14_linear_1220_487" x1="81.9147" y1="150.46" x2="81.9147" y2="144.209" gradientUnits="userSpaceOnUse">
<stop stop-color="#000042" stop-opacity="0"/>
<stop offset="1" stop-color="#00004A" stop-opacity="0.07"/>
</linearGradient>
<linearGradient id="paint15_linear_1220_487" x1="81.9147" y1="51.0439" x2="81.9147" y2="56.8958" gradientUnits="userSpaceOnUse">
<stop stop-color="#000042" stop-opacity="0"/>
<stop offset="1" stop-color="#00004A" stop-opacity="0.07"/>
</linearGradient>
<linearGradient id="paint16_linear_1220_487" x1="64.7997" y1="67.8276" x2="64.7997" y2="100.449" gradientUnits="userSpaceOnUse">
<stop stop-color="#C4EAFC"/>
<stop offset="0.6335" stop-color="#EDF8FE"/>
<stop offset="1" stop-color="white"/>
</linearGradient>
<linearGradient id="paint17_linear_1220_487" x1="89.6931" y1="67.8276" x2="89.6931" y2="100.449" gradientUnits="userSpaceOnUse">
<stop stop-color="#C4EAFC"/>
<stop offset="0.6335" stop-color="#EDF8FE"/>
<stop offset="1" stop-color="white"/>
</linearGradient>
<linearGradient id="paint18_linear_1220_487" x1="284.178" y1="107.157" x2="284.178" y2="138.001" gradientUnits="userSpaceOnUse">
<stop stop-color="#E5E5E5"/>
<stop offset="0.3899" stop-color="#E9E9E9"/>
<stop offset="0.7931" stop-color="#F6F6F6"/>
<stop offset="1" stop-color="white"/>
</linearGradient>
</defs>
</svg>
