<svg width="24" height="38" viewBox="0 0 24 38" fill="none" xmlns="http://www.w3.org/2000/svg">
<path d="M22.333 6.50731C20.2148 2.52741 16.4524 0.0959276 12.2685 0.00300586C12.0899 -0.00100195 11.9101 -0.00100195 11.7315 0.00300586C7.54766 0.0959276 3.78526 2.52741 1.66697 6.50731C-0.498221 10.5754 -0.55746 15.4619 1.50848 19.5789L10.1634 36.8264C10.1673 36.834 10.1712 36.8417 10.1752 36.8492C10.556 37.5698 11.2382 38 12.0001 38C12.762 38 13.4442 37.5698 13.8249 36.8492C13.8289 36.8417 13.8328 36.834 13.8367 36.8264L22.4916 19.5789C24.5574 15.4619 24.4982 10.5754 22.333 6.50731ZM12 17.2188C9.2936 17.2188 7.09181 14.8216 7.09181 11.875C7.09181 8.92847 9.2936 6.53128 12 6.53128C14.7064 6.53128 16.9082 8.92847 16.9082 11.875C16.9082 14.8216 14.7064 17.2188 12 17.2188Z" fill="#A2B7F3"/>
<ellipse cx="12.0152" cy="11.6037" rx="5.07473" ry="5.52406" fill="white"/>
</svg>
