<svg width="24" height="39" viewBox="0 0 24 39" fill="none" xmlns="http://www.w3.org/2000/svg">
<path d="M22.333 6.86742C20.2148 2.88751 16.4524 0.456035 12.2685 0.363113C12.0899 0.359105 11.9101 0.359105 11.7315 0.363113C7.54766 0.456035 3.78526 2.88751 1.66697 6.86742C-0.498221 10.9355 -0.55746 15.822 1.50848 19.939L10.1634 37.1865C10.1673 37.1941 10.1712 37.2018 10.1752 37.2093C10.556 37.9299 11.2382 38.3601 12.0001 38.3601C12.762 38.3601 13.4442 37.9299 13.8249 37.2093C13.8289 37.2018 13.8328 37.1941 13.8367 37.1865L22.4916 19.939C24.5574 15.822 24.4982 10.9355 22.333 6.86742ZM12 17.5789C9.2936 17.5789 7.09181 15.1817 7.09181 12.2351C7.09181 9.28858 9.2936 6.89139 12 6.89139C14.7064 6.89139 16.9082 9.28858 16.9082 12.2351C16.9082 15.1817 14.7064 17.5789 12 17.5789Z" fill="#9ca3af"/>
<ellipse cx="11.9844" cy="12.4519" rx="5.07473" ry="5.52406" fill="white"/>
</svg>
